<?xml version="1.0" encoding="utf-8"?>
<!-- Generator: Adobe Illustrator 23.0.1, SVG Export Plug-In . SVG Version: 6.00 Build 0)  -->
<svg version="1.1" id="Layer_1" xmlns="http://www.w3.org/2000/svg" xmlns:xlink="http://www.w3.org/1999/xlink" x="0px" y="0px"
	 viewBox="0 0 213 100" style="enable-background:new 0 0 213 100;" xml:space="preserve">
<g>
	<defs>
		<rect id="SVGID_1_" x="4.7" y="4.4" width="204.4" height="91.3"/>
	</defs>
	<clipPath id="SVGID_2_">
		<use xlink:href="#SVGID_1_"  style="overflow:visible;"/>
	</clipPath>
	<path fill="#0F4099" d="M4.9,6.5c0-0.8,0.6-1.4,1.4-1.4h0.3c0.6,0,1,0.3,1.3,0.7l4.7,7.4l4.8-7.5c0.3-0.5,0.7-0.7,1.3-0.7h0.3
		c0.8,0,1.4,0.6,1.4,1.4v13.1c0,0.8-0.6,1.4-1.4,1.4c-0.7,0-1.4-0.6-1.4-1.4v-9.4L13.7,16c-0.3,0.4-0.6,0.7-1.2,0.7
		c-0.5,0-0.9-0.3-1.1-0.7l-3.8-5.7v9.4C7.6,20.4,7,21,6.2,21c-0.8,0-1.3-0.6-1.3-1.3V6.5z"/>
	<path fill="#0F4099" d="M23.4,24.2c-0.4-0.1-0.9-0.5-0.9-1.1c0-0.7,0.5-1.1,1.1-1.1c0.2,0,0.4,0,0.5,0.1c0.3,0.1,0.6,0.2,0.9,0.2
		c0.8,0,1.2-0.3,1.7-1.3l0.1-0.2l-4.4-9.8c-0.1-0.2-0.2-0.5-0.2-0.6c0-0.8,0.6-1.3,1.3-1.3c0.7,0,1.1,0.4,1.3,1l3.2,7.9l3-7.9
		c0.2-0.6,0.6-1,1.3-1c0.7,0,1.3,0.6,1.3,1.3c0,0.2-0.1,0.5-0.1,0.6l-4.3,10.4c-1,2.4-2.1,3.3-4,3.3C24.5,24.5,23.9,24.4,23.4,24.2"
		/>
	<path fill="#0F4099" d="M41.5,6.6c0-0.8,0.6-1.4,1.4-1.4H52c0.7,0,1.3,0.6,1.3,1.3c0,0.7-0.6,1.3-1.3,1.3h-7.8V12H51
		c0.7,0,1.3,0.6,1.3,1.3c0,0.7-0.6,1.3-1.3,1.3h-6.8v5.1c0,0.8-0.6,1.4-1.4,1.4c-0.8,0-1.4-0.6-1.4-1.4V6.6z"/>
	<path fill="#0F4099" d="M53.7,17.5L53.7,17.5c0-2.6,2-3.9,4.9-3.9c1.3,0,2.3,0.2,3.2,0.5v-0.3c0-1.7-1-2.6-2.9-2.6
		c-1,0-1.9,0.2-2.6,0.5c-0.2,0-0.3,0.1-0.4,0.1c-0.6,0-1.1-0.5-1.1-1.1c0-0.5,0.3-0.9,0.7-1.1c1.1-0.4,2.3-0.7,3.8-0.7
		c1.8,0,3.1,0.5,3.9,1.3c0.9,0.9,1.3,2.1,1.3,3.7v5.8c0,0.7-0.6,1.3-1.3,1.3c-0.8,0-1.3-0.5-1.3-1.1v-0.4c-0.8,1-2,1.7-3.9,1.7
		C55.6,21.1,53.7,19.8,53.7,17.5 M61.8,16.6v-0.8c-0.7-0.3-1.6-0.5-2.7-0.5c-1.7,0-2.8,0.7-2.8,2v0c0,1.1,1,1.8,2.3,1.8
		C60.4,19.2,61.8,18.1,61.8,16.6"/>
	<path fill="#0F4099" d="M66.7,10.3c0-0.8,0.6-1.4,1.3-1.4c0.8,0,1.4,0.6,1.4,1.4v0.6c0.8-1.1,1.8-2,3.6-2c1.7,0,2.9,0.8,3.5,2.1
		c0.9-1.3,2.2-2.1,4-2.1c2.6,0,4.1,1.6,4.1,4.5v6.3c0,0.8-0.6,1.3-1.3,1.3c-0.8,0-1.4-0.6-1.4-1.3v-5.5c0-1.9-0.9-2.9-2.4-2.9
		c-1.5,0-2.5,1-2.5,2.9v5.4c0,0.8-0.6,1.3-1.3,1.3c-0.8,0-1.4-0.6-1.4-1.3v-5.5c0-1.8-0.9-2.9-2.4-2.9c-1.5,0-2.5,1.1-2.5,2.9v5.4
		c0,0.8-0.6,1.3-1.4,1.3c-0.7,0-1.3-0.6-1.3-1.3V10.3z"/>
	<path fill="#0F4099" d="M87,5.9c0-0.8,0.7-1.3,1.5-1.3c0.9,0,1.5,0.5,1.5,1.3V6c0,0.8-0.7,1.3-1.5,1.3C87.7,7.3,87,6.8,87,6V5.9z
		 M87.2,10.3c0-0.8,0.6-1.4,1.3-1.4c0.8,0,1.4,0.6,1.4,1.4v9.4c0,0.8-0.6,1.3-1.4,1.3c-0.7,0-1.3-0.6-1.3-1.3V10.3z"/>
	<path fill="#0F4099" d="M92.8,5.8c0-0.7,0.6-1.3,1.3-1.3c0.8,0,1.4,0.6,1.4,1.3v13.9c0,0.8-0.6,1.3-1.4,1.3c-0.7,0-1.3-0.6-1.3-1.3
		V5.8z"/>
	<path fill="#0F4099" d="M98.8,24.2c-0.4-0.1-0.9-0.5-0.9-1.1c0-0.7,0.5-1.1,1.1-1.1c0.2,0,0.4,0,0.5,0.1c0.3,0.1,0.6,0.2,0.9,0.2
		c0.8,0,1.2-0.3,1.7-1.3l0.1-0.2l-4.4-9.8c-0.1-0.2-0.2-0.5-0.2-0.6c0-0.8,0.6-1.3,1.3-1.3c0.7,0,1.1,0.4,1.3,1l3.2,7.9l3-7.9
		c0.2-0.6,0.6-1,1.3-1c0.7,0,1.3,0.6,1.3,1.3c0,0.2-0.1,0.5-0.1,0.6l-4.3,10.4c-1,2.4-2.1,3.3-4,3.3C99.9,24.5,99.4,24.4,98.8,24.2"
		/>
	<path fill="#7D55C7" d="M4.7,108.3L4.7,108.3c0-2.7,2.1-5,4.9-5c1.4,0,2.4,0.3,3.3,1c0.2,0.1,0.3,0.4,0.3,0.7c0,0.5-0.4,0.8-0.8,0.8
		c-0.2,0-0.4-0.1-0.5-0.2c-0.6-0.4-1.3-0.8-2.3-0.8c-1.8,0-3.1,1.5-3.1,3.4v0c0,2,1.3,3.4,3.3,3.4c0.9,0,1.7-0.3,2.3-0.7v-1.8h-1.9
		c-0.4,0-0.8-0.3-0.8-0.7c0-0.4,0.3-0.7,0.8-0.7h2.7c0.5,0,0.8,0.4,0.8,0.8v2.6c0,0.5-0.2,0.8-0.6,1.1c-0.8,0.5-2,1-3.4,1
		C6.6,113.3,4.7,111.1,4.7,108.3"/>
	<path fill="#7D55C7" d="M15,103.9c0-0.5,0.4-0.8,0.9-0.8c0.5,0,0.9,0.3,0.9,0.8v0.1c0,0.5-0.4,0.8-0.9,0.8
		C15.5,104.8,15,104.5,15,103.9L15,103.9z M15.2,106.6c0-0.5,0.4-0.8,0.8-0.8c0.5,0,0.8,0.4,0.8,0.8v5.7c0,0.5-0.4,0.8-0.8,0.8
		c-0.5,0-0.8-0.4-0.8-0.8V106.6z"/>
	<path fill="#7D55C7" d="M21.4,113.2L21.4,113.2c-0.5,0-0.8-0.3-1-0.7L18,107c0-0.1-0.1-0.3-0.1-0.4c0-0.4,0.4-0.8,0.8-0.8
		c0.5,0,0.7,0.3,0.8,0.6l1.9,4.8l1.9-4.8c0.1-0.3,0.3-0.6,0.8-0.6c0.5,0,0.8,0.3,0.8,0.8c0,0.2-0.1,0.3-0.1,0.4l-2.4,5.5
		C22.2,112.9,21.9,113.2,21.4,113.2"/>
	<path fill="#7D55C7" d="M28.9,113.3c-2.1,0-3.7-1.5-3.7-3.7v0c0-2.1,1.5-3.8,3.5-3.8c2.3,0,3.4,1.9,3.4,3.6c0,0.5-0.4,0.8-0.8,0.8
		h-4.5c0.2,1.2,1,1.8,2.1,1.8c0.7,0,1.2-0.2,1.7-0.6c0.1-0.1,0.2-0.2,0.4-0.2c0.4,0,0.7,0.3,0.7,0.7c0,0.2-0.1,0.4-0.2,0.5
		C30.9,112.9,30.1,113.3,28.9,113.3 M30.6,109c-0.1-1.1-0.7-1.9-1.8-1.9c-1,0-1.7,0.8-1.9,1.9H30.6z"/>
	<path fill="#7D55C7" d="M37.2,111.1v-3.8H37c-0.4,0-0.7-0.3-0.7-0.7c0-0.4,0.3-0.7,0.7-0.7h0.3v-1.2c0-0.5,0.4-0.8,0.8-0.8
		c0.5,0,0.8,0.4,0.8,0.8v1.2h1.3c0.4,0,0.7,0.3,0.7,0.7c0,0.4-0.3,0.7-0.7,0.7h-1.3v3.5c0,0.6,0.3,0.9,0.9,0.9c0.2,0,0.4,0,0.4,0
		c0.4,0,0.7,0.3,0.7,0.7c0,0.3-0.2,0.5-0.4,0.6c-0.4,0.1-0.7,0.2-1.1,0.2C38.1,113.2,37.2,112.7,37.2,111.1"/>
	<path fill="#7D55C7" d="M42,103.9c0-0.5,0.4-0.8,0.8-0.8c0.5,0,0.8,0.4,0.8,0.8v3.1c0.5-0.7,1.1-1.3,2.3-1.3c1.6,0,2.6,1.1,2.6,2.8
		v3.9c0,0.5-0.4,0.8-0.8,0.8s-0.8-0.4-0.8-0.8V109c0-1.1-0.6-1.8-1.5-1.8c-1,0-1.6,0.7-1.6,1.8v3.3c0,0.5-0.4,0.8-0.8,0.8
		c-0.5,0-0.8-0.4-0.8-0.8V103.9z"/>
	<path fill="#7D55C7" d="M53.2,113.3c-2.1,0-3.7-1.5-3.7-3.7v0c0-2.1,1.5-3.8,3.5-3.8c2.3,0,3.4,1.9,3.4,3.6c0,0.5-0.4,0.8-0.8,0.8
		h-4.5c0.2,1.2,1,1.8,2.1,1.8c0.7,0,1.2-0.2,1.7-0.6c0.1-0.1,0.2-0.2,0.4-0.2c0.4,0,0.7,0.3,0.7,0.7c0,0.2-0.1,0.4-0.2,0.5
		C55.1,112.9,54.3,113.3,53.2,113.3 M54.8,109c-0.1-1.1-0.7-1.9-1.8-1.9c-1,0-1.7,0.8-1.9,1.9H54.8z"/>
	<path fill="#7D55C7" d="M57.6,106.6c0-0.5,0.4-0.8,0.8-0.8c0.5,0,0.8,0.4,0.8,0.8v0.3c0.5-0.6,1.1-1.2,2.2-1.2c1,0,1.8,0.5,2.2,1.3
		c0.6-0.8,1.3-1.3,2.4-1.3c1.6,0,2.5,1,2.5,2.8v3.9c0,0.5-0.4,0.8-0.8,0.8c-0.5,0-0.8-0.4-0.8-0.8V109c0-1.1-0.5-1.8-1.5-1.8
		c-0.9,0-1.5,0.6-1.5,1.8v3.3c0,0.5-0.4,0.8-0.8,0.8c-0.5,0-0.8-0.4-0.8-0.8V109c0-1.1-0.5-1.8-1.5-1.8s-1.5,0.7-1.5,1.8v3.3
		c0,0.5-0.4,0.8-0.8,0.8c-0.5,0-0.8-0.4-0.8-0.8V106.6z"/>
	<path fill="#7D55C7" d="M73.9,111.1v-3.8h-0.3c-0.4,0-0.7-0.3-0.7-0.7c0-0.4,0.3-0.7,0.7-0.7h0.3v-1.2c0-0.5,0.4-0.8,0.8-0.8
		c0.5,0,0.8,0.4,0.8,0.8v1.2h1.3c0.4,0,0.7,0.3,0.7,0.7c0,0.4-0.3,0.7-0.7,0.7h-1.3v3.5c0,0.6,0.3,0.9,0.9,0.9c0.2,0,0.4,0,0.4,0
		c0.4,0,0.7,0.3,0.7,0.7c0,0.3-0.2,0.5-0.4,0.6c-0.4,0.1-0.7,0.2-1.1,0.2C74.8,113.2,73.9,112.7,73.9,111.1"/>
	<path fill="#7D55C7" d="M78.7,103.9c0-0.5,0.4-0.8,0.8-0.8c0.5,0,0.8,0.4,0.8,0.8v3.1c0.5-0.7,1.1-1.3,2.3-1.3c1.6,0,2.6,1.1,2.6,2.8
		v3.9c0,0.5-0.4,0.8-0.8,0.8c-0.5,0-0.8-0.4-0.8-0.8V109c0-1.1-0.6-1.8-1.5-1.8c-1,0-1.6,0.7-1.6,1.8v3.3c0,0.5-0.4,0.8-0.8,0.8
		c-0.5,0-0.8-0.4-0.8-0.8V103.9z"/>
	<path fill="#7D55C7" d="M89.9,113.3c-2.1,0-3.7-1.5-3.7-3.7v0c0-2.1,1.5-3.8,3.5-3.8c2.3,0,3.4,1.9,3.4,3.6c0,0.5-0.4,0.8-0.8,0.8
		h-4.5c0.2,1.2,1,1.8,2.1,1.8c0.7,0,1.2-0.2,1.7-0.6c0.1-0.1,0.2-0.2,0.4-0.2c0.4,0,0.7,0.3,0.7,0.7c0,0.2-0.1,0.4-0.2,0.5
		C91.9,112.9,91,113.3,89.9,113.3 M91.6,109c-0.1-1.1-0.7-1.9-1.8-1.9c-1,0-1.7,0.8-1.9,1.9H91.6z"/>
	<path fill="#7D55C7" d="M98,103.9c0-0.5,0.4-0.8,0.8-0.8c0.5,0,0.8,0.4,0.8,0.8v8.5c0,0.5-0.4,0.8-0.8,0.8c-0.5,0-0.8-0.4-0.8-0.8
		V103.9z"/>
	<path fill="#7D55C7" d="M100.8,109.5L100.8,109.5c0-2.1,1.6-3.8,3.9-3.8c2.2,0,3.8,1.7,3.8,3.7v0c0,2-1.6,3.8-3.9,3.8
		C102.5,113.3,100.8,111.6,100.8,109.5 M106.9,109.5L106.9,109.5c0-1.3-0.9-2.4-2.2-2.4c-1.3,0-2.2,1-2.2,2.3v0
		c0,1.3,0.9,2.3,2.2,2.3C106,111.8,106.9,110.8,106.9,109.5"/>
	<path fill="#7D55C7" d="M112.4,113.2L112.4,113.2c-0.5,0-0.8-0.3-1-0.7L109,107c0-0.1-0.1-0.3-0.1-0.4c0-0.4,0.4-0.8,0.8-0.8
		c0.5,0,0.7,0.3,0.8,0.6l1.9,4.8l1.9-4.8c0.1-0.3,0.3-0.6,0.8-0.6c0.5,0,0.8,0.3,0.8,0.8c0,0.2-0.1,0.3-0.1,0.4l-2.4,5.5
		C113.2,112.9,112.9,113.2,112.4,113.2"/>
	<path fill="#7D55C7" d="M119.9,113.3c-2.1,0-3.7-1.5-3.7-3.7v0c0-2.1,1.5-3.8,3.5-3.8c2.3,0,3.4,1.9,3.4,3.6c0,0.5-0.4,0.8-0.8,0.8
		h-4.5c0.2,1.2,1,1.8,2.1,1.8c0.7,0,1.2-0.2,1.7-0.6c0.1-0.1,0.2-0.2,0.4-0.2c0.4,0,0.7,0.3,0.7,0.7c0,0.2-0.1,0.4-0.2,0.5
		C121.8,112.9,121,113.3,119.9,113.3 M121.5,109c-0.1-1.1-0.7-1.9-1.8-1.9c-1,0-1.7,0.8-1.9,1.9H121.5z"/>
	<path fill="#7D55C7" d="M128.2,111.1v-3.8h-0.3c-0.4,0-0.7-0.3-0.7-0.7c0-0.4,0.3-0.7,0.7-0.7h0.3v-1.2c0-0.5,0.4-0.8,0.8-0.8
		c0.5,0,0.8,0.4,0.8,0.8v1.2h1.3c0.4,0,0.7,0.3,0.7,0.7c0,0.4-0.3,0.7-0.7,0.7h-1.3v3.5c0,0.6,0.3,0.9,0.9,0.9c0.2,0,0.4,0,0.4,0
		c0.4,0,0.7,0.3,0.7,0.7c0,0.3-0.2,0.5-0.4,0.6c-0.4,0.1-0.7,0.2-1.1,0.2C129.1,113.2,128.2,112.7,128.2,111.1"/>
	<path fill="#7D55C7" d="M132.9,103.9c0-0.5,0.4-0.8,0.8-0.8c0.5,0,0.8,0.4,0.8,0.8v3.1c0.5-0.7,1.1-1.3,2.3-1.3c1.6,0,2.6,1.1,2.6,2.8
		v3.9c0,0.5-0.4,0.8-0.8,0.8c-0.5,0-0.8-0.4-0.8-0.8V109c0-1.1-0.6-1.8-1.5-1.8c-1,0-1.6,0.7-1.6,1.8v3.3c0,0.5-0.4,0.8-0.8,0.8
		c-0.5,0-0.8-0.4-0.8-0.8V103.9z"/>
	<path fill="#7D55C7" d="M144.2,113.3c-2.1,0-3.7-1.5-3.7-3.7v0c0-2.1,1.5-3.8,3.5-3.8c2.3,0,3.4,1.9,3.4,3.6c0,0.5-0.4,0.8-0.8,0.8
		h-4.5c0.2,1.2,1,1.8,2.1,1.8c0.7,0,1.2-0.2,1.7-0.6c0.1-0.1,0.2-0.2,0.4-0.2c0.4,0,0.7,0.3,0.7,0.7c0,0.2-0.1,0.4-0.2,0.5
		C146.1,112.9,145.3,113.3,144.2,113.3 M145.8,109c-0.1-1.1-0.7-1.9-1.8-1.9c-1,0-1.7,0.8-1.9,1.9H145.8z"/>
	<path fill="#7D55C7" d="M148.5,115.1c-0.2-0.1-0.5-0.3-0.5-0.7c0-0.4,0.3-0.7,0.7-0.7c0.1,0,0.2,0,0.3,0.1c0.2,0.1,0.3,0.1,0.6,0.1
		c0.5,0,0.8-0.2,1-0.8l0.1-0.2l-2.7-6c-0.1-0.1-0.1-0.3-0.1-0.4c0-0.5,0.4-0.8,0.8-0.8c0.4,0,0.7,0.2,0.8,0.6l1.9,4.8l1.8-4.8
		c0.1-0.3,0.4-0.6,0.8-0.6c0.4,0,0.8,0.3,0.8,0.8c0,0.1,0,0.3-0.1,0.4l-2.6,6.3c-0.6,1.5-1.3,2-2.4,2
		C149.2,115.3,148.8,115.2,148.5,115.1"/>
	<path fill="#7D55C7" d="M166.5,112.3c0,0.5-0.4,0.8-0.8,0.8c-0.5,0-0.8-0.4-0.8-0.8v-0.5c-0.5,0.8-1.3,1.4-2.5,1.4
		c-1.7,0-3.3-1.4-3.3-3.7v0c0-2.4,1.6-3.7,3.3-3.7c1.2,0,1.9,0.6,2.5,1.3v-3.1c0-0.5,0.4-0.8,0.8-0.8c0.5,0,0.8,0.4,0.8,0.8V112.3z
		 M160.7,109.5L160.7,109.5c0,1.4,1,2.3,2.1,2.3c1.1,0,2.1-0.9,2.1-2.3v0c0-1.4-1-2.3-2.1-2.3C161.6,107.2,160.7,108,160.7,109.5"/>
	<path fill="#7D55C7" d="M171.3,113.3c-2.1,0-3.7-1.5-3.7-3.7v0c0-2.1,1.5-3.8,3.5-3.8c2.3,0,3.4,1.9,3.4,3.6c0,0.5-0.4,0.8-0.8,0.8
		h-4.5c0.2,1.2,1,1.8,2.1,1.8c0.7,0,1.2-0.2,1.7-0.6c0.1-0.1,0.2-0.2,0.4-0.2c0.4,0,0.7,0.3,0.7,0.7c0,0.2-0.1,0.4-0.2,0.5
		C173.2,112.9,172.4,113.3,171.3,113.3 M172.9,109c-0.1-1.1-0.7-1.9-1.8-1.9c-1,0-1.7,0.8-1.9,1.9H172.9z"/>
	<path fill="#7D55C7" d="M175.4,112.4c-0.2-0.1-0.3-0.3-0.3-0.6c0-0.4,0.3-0.7,0.7-0.7c0.1,0,0.3,0,0.4,0.1c0.7,0.5,1.4,0.7,2.1,0.7
		c0.7,0,1.1-0.3,1.1-0.8v0c0-0.6-0.8-0.8-1.6-1c-1.1-0.3-2.3-0.7-2.3-2.1v0c0-1.4,1.1-2.2,2.6-2.2c0.8,0,1.6,0.2,2.3,0.6
		c0.2,0.1,0.4,0.3,0.4,0.6c0,0.4-0.3,0.7-0.7,0.7c-0.1,0-0.2,0-0.3-0.1c-0.6-0.3-1.2-0.5-1.7-0.5c-0.6,0-1,0.3-1,0.7v0
		c0,0.5,0.8,0.8,1.6,1c1.1,0.3,2.2,0.8,2.2,2.1v0c0,1.5-1.2,2.3-2.7,2.3C177.3,113.2,176.3,112.9,175.4,112.4"/>
	<path fill="#7D55C7" d="M185.3,113.3c-2.1,0-3.7-1.5-3.7-3.7v0c0-2.1,1.5-3.8,3.5-3.8c2.3,0,3.4,1.9,3.4,3.6c0,0.5-0.4,0.8-0.8,0.8
		h-4.5c0.2,1.2,1,1.8,2.1,1.8c0.7,0,1.2-0.2,1.7-0.6c0.1-0.1,0.2-0.2,0.4-0.2c0.4,0,0.7,0.3,0.7,0.7c0,0.2-0.1,0.4-0.2,0.5
		C187.3,112.9,186.4,113.3,185.3,113.3 M187,109c-0.1-1.1-0.7-1.9-1.8-1.9c-1,0-1.7,0.8-1.9,1.9H187z"/>
	<path fill="#7D55C7" d="M189.7,106.6c0-0.5,0.4-0.8,0.8-0.8c0.5,0,0.8,0.4,0.8,0.8v0.7c0.4-0.9,1.1-1.6,1.8-1.6c0.5,0,0.8,0.3,0.8,0.8
		c0,0.4-0.3,0.7-0.7,0.8c-1.2,0.2-2,1.1-2,2.8v2.1c0,0.5-0.4,0.8-0.8,0.8c-0.5,0-0.8-0.4-0.8-0.8V106.6z"/>
	<path fill="#7D55C7" d="M198.4,113.2L198.4,113.2c-0.5,0-0.8-0.3-1-0.7l-2.4-5.5c0-0.1-0.1-0.3-0.1-0.4c0-0.4,0.4-0.8,0.8-0.8
		c0.5,0,0.7,0.3,0.8,0.6l1.9,4.8l1.9-4.8c0.1-0.3,0.3-0.6,0.8-0.6c0.5,0,0.8,0.3,0.8,0.8c0,0.2-0.1,0.3-0.1,0.4l-2.4,5.5
		C199.1,112.9,198.8,113.2,198.4,113.2"/>
	<path fill="#7D55C7" d="M205.9,113.3c-2.1,0-3.7-1.5-3.7-3.7v0c0-2.1,1.5-3.8,3.5-3.8c2.3,0,3.4,1.9,3.4,3.6c0,0.5-0.4,0.8-0.8,0.8
		h-4.5c0.2,1.2,1,1.8,2.1,1.8c0.7,0,1.2-0.2,1.7-0.6c0.1-0.1,0.2-0.2,0.4-0.2c0.4,0,0.7,0.3,0.7,0.7c0,0.2-0.1,0.4-0.2,0.5
		C207.8,112.9,207,113.3,205.9,113.3 M207.5,109c-0.1-1.1-0.7-1.9-1.8-1.9c-1,0-1.7,0.8-1.9,1.9H207.5z"/>
	<path fill="#7D55C7" d="M4.7,39c0-2.8,2.2-4.9,4.9-4.9h17c13.1,0,21.2,7.4,21.2,18.6v0.2c0,12.5-10,19-22.3,19H14.5v13.5
		c0,2.7-2.2,4.9-4.9,4.9c-2.8,0-4.9-2.1-4.9-4.9V39z M25.8,63c7.4,0,12-4.1,12-9.9v-0.2c0-6.5-4.7-9.9-12-9.9H14.5V63H25.8z"/>
	<path fill="#7D55C7" d="M70.8,90.7c-12.2,0-21.6-8.8-21.6-21.8v-0.2c0-12,8.5-21.9,20.5-21.9c13.4,0,20,11,20,20.7
		c0,2.7-2.1,4.6-4.5,4.6H58.9c1,6.8,5.9,10.7,12.1,10.7c4.1,0,7.2-1.4,9.9-3.7c0.7-0.6,1.4-0.9,2.5-0.9c2.1,0,3.8,1.7,3.8,3.9
		c0,1.2-0.6,2.2-1.3,2.9C82.1,88.6,77.3,90.7,70.8,90.7 M80.4,65.8c-0.6-6.2-4.3-11.1-10.7-11.1c-5.9,0-10,4.5-10.9,11.1H80.4z"/>
	<path fill="#7D55C7" d="M96.8,78.2V56h-1.6c-2.3,0-4.1-1.8-4.1-4.1c0-2.3,1.8-4.1,4.1-4.1h1.6v-7.2c0-2.6,2.1-4.8,4.9-4.8
		c2.6,0,4.8,2.1,4.8,4.8v7.2h7.6c2.3,0,4.2,1.8,4.2,4.1c0,2.3-1.9,4.1-4.2,4.1h-7.6v20.6c0,3.7,1.9,5.3,5.2,5.3
		c1.1,0,2.1-0.2,2.4-0.2c2.1,0,4.1,1.8,4.1,4c0,1.8-1.2,3.2-2.5,3.7c-2.1,0.7-4.1,1.1-6.6,1.1C101.9,90.5,96.8,87.4,96.8,78.2"/>
	<path fill="#7D55C7" d="M208.3,72.4c0-5.2-4.2-9.3-9.3-9.3c-5.2,0-9.3,4.2-9.3,9.3c0,5.2,4.2,9.3,9.3,9.3
		C204.1,81.8,208.3,77.6,208.3,72.4"/>
	<path fill="#7D55C7" d="M154.6,18.7c0-5.2-4.2-9.3-9.3-9.3c-5.2,0-9.3,4.2-9.3,9.3c0,5.2,4.2,9.3,9.3,9.3
		C150.5,28.1,154.6,23.9,154.6,18.7"/>
	<path fill="#7D55C7" d="M172.5,34.9c5.2,0,9.3-4.2,9.3-9.3c0-5.2-4.2-9.3-9.3-9.3c-5.2,0-9.3,4.2-9.3,9.3
		C163.2,30.7,167.4,34.9,172.5,34.9"/>
	<path fill="#7D55C7" d="M192.4,54.7c5.2,0,9.3-4.2,9.3-9.3c0-5.2-4.2-9.3-9.3-9.3c-5.2,0-9.3,4.2-9.3,9.3
		C183,50.5,187.2,54.7,192.4,54.7"/>
	<path fill="#7D55C7" d="M158.6,59.1"/>
	<path fill="#7D55C7" d="M183.5,69.7c0.3-5.9-1.7-11.4-5.5-15.2c-2.7-2.7-5.9-4.5-9.5-5.3c-0.8-3.6-2.6-6.8-5.3-9.5
		c-3.8-3.8-9.3-5.8-15.2-5.5c-5.9,0.3-11.2,2.8-14.6,6.9c-4.3,5.2-6.4,13.4-6.4,24.8c0,6,0.6,11.4,0.9,14.1c0.3,2.6,1.5,4.8,3.2,6.6
		c1.7,1.7,4,2.9,6.6,3.2c2.7,0.4,8.1,0.9,14.1,0.9c11.4,0,19.5-2.1,24.8-6.4C180.7,80.9,183.2,75.6,183.5,69.7 M170.5,77
		c-4.1,3.4-11.8,4.3-18.8,4.3c-5.5,0-10.5-0.6-12.9-0.9c-0.4-0.1-0.8-0.3-1.1-0.6c-0.3-0.3-0.5-0.7-0.6-1.1
		c-0.3-2.4-0.9-7.4-0.9-12.9c0-7,0.9-14.7,4.3-18.8c3.6-4.4,11.8-4.8,15.9-0.7c2.4,2.4,3.1,5.2,3.1,7.6c0,2.8-0.9,5-0.9,5
		c0,0,2.2-0.9,5-0.9c2.4,0,5.2,0.7,7.6,3.1C175.3,65.2,174.9,73.4,170.5,77"/>
</g>
</svg>
